{
	"asset":{
		"generator":"Khronos glTF Blender I/O v4.1.63",
		"version":"2.0"
	},
	"scene":0,
	"scenes":[
		{
			"name":"Scene",
			"nodes":[
				0
			]
		}
	],
	"nodes":[
		{
			"mesh":0,
			"name":"Bazooka"
		}
	],
	"meshes":[
		{
			"name":"\u7acb\u65b9\u4f53.001",
			"primitives":[
				{
					"attributes":{
						"POSITION":0,
						"NORMAL":1,
						"TEXCOORD_0":2
					},
					"indices":3
				}
			]
		}
	],
	"accessors":[
		{
			"bufferView":0,
			"componentType":5126,
			"count":266,
			"max":[
				0.2768952548503876,
				4.306768894195557,
				0.18494391441345215
			],
			"min":[
				-0.2768952548503876,
				-2.0219409465789795,
				-1.4121644496917725
			],
			"type":"VEC3"
		},
		{
			"bufferView":1,
			"componentType":5126,
			"count":266,
			"type":"VEC3"
		},
		{
			"bufferView":2,
			"componentType":5126,
			"count":266,
			"type":"VEC2"
		},
		{
			"bufferView":3,
			"componentType":5123,
			"count":684,
			"type":"SCALAR"
		}
	],
	"bufferViews":[
		{
			"buffer":0,
			"byteLength":3192,
			"byteOffset":0,
			"target":34962
		},
		{
			"buffer":0,
			"byteLength":3192,
			"byteOffset":3192,
			"target":34962
		},
		{
			"buffer":0,
			"byteLength":2128,
			"byteOffset":6384,
			"target":34962
		},
		{
			"buffer":0,
			"byteLength":1368,
			"byteOffset":8512,
			"target":34963
		}
	],
	"buffers":[
		{
			"byteLength":9880,
			"uri":"Bazooka.bin"
		}
	]
}
