{
	"asset":{
		"generator":"Khronos glTF Blender I/O v4.1.63",
		"version":"2.0"
	},
	"scene":0,
	"scenes":[
		{
			"name":"Scene",
			"nodes":[
				22
			]
		}
	],
	"nodes":[
		{
			"name":"\u30dc\u30fc\u30f3.005",
			"rotation":[
				0,
				1.4210854715202004e-14,
				0,
				1
			],
			"translation":[
				0,
				0.4588690996170044,
				0
			]
		},
		{
			"children":[
				0
			],
			"name":"\u30dc\u30fc\u30f3.004",
			"rotation":[
				0,
				1.1920927533992653e-07,
				0,
				1
			],
			"scale":[
				1,
				0.9999999403953552,
				1
			],
			"translation":[
				0,
				0.9836130142211914,
				0
			]
		},
		{
			"name":"\u30dc\u30fc\u30f3.010",
			"rotation":[
				-0.06026872619986534,
				6.802166581110214e-07,
				-0.011619416065514088,
				0.9981145858764648
			],
			"translation":[
				-5.168840289115906e-08,
				0.8493925929069519,
				9.313225746154785e-09
			]
		},
		{
			"children":[
				2
			],
			"name":"\u30dc\u30fc\u30f3.009",
			"rotation":[
				0.05738797038793564,
				-0.001720872474834323,
				-0.0009901033481583,
				0.9983500242233276
			],
			"scale":[
				0.9999998807907104,
				1,
				0.9999999403953552
			],
			"translation":[
				6.938353180885315e-08,
				0.9262653589248657,
				-4.470348358154297e-08
			]
		},
		{
			"children":[
				3
			],
			"name":"\u30dc\u30fc\u30f3.008",
			"rotation":[
				-0.057072293013334274,
				0.009304079227149487,
				0.7425249814987183,
				0.6673176288604736
			],
			"scale":[
				1.0000001192092896,
				1.0000001192092896,
				0.9999999403953552
			],
			"translation":[
				1.7706770449876785e-07,
				0.969695508480072,
				1.1175870895385742e-08
			]
		},
		{
			"children":[
				4
			],
			"name":"\u30dc\u30fc\u30f3.007",
			"rotation":[
				-0.13573281466960907,
				-9.782960114534944e-05,
				-0.005483184941112995,
				0.9907302856445312
			],
			"translation":[
				9.778887033462524e-09,
				0.8576193451881409,
				0
			]
		},
		{
			"children":[
				5
			],
			"name":"\u30dc\u30fc\u30f3.006",
			"rotation":[
				0.052914753556251526,
				0.07003739476203918,
				0.6735070943832397,
				0.7339503169059753
			],
			"scale":[
				0.9999999403953552,
				1,
				0.9999999403953552
			],
			"translation":[
				0,
				0.9836130142211914,
				0
			]
		},
		{
			"name":"\u30dc\u30fc\u30f3.015",
			"rotation":[
				-0.060269348323345184,
				0.00033985363552346826,
				-0.011616148985922337,
				0.9981145262718201
			],
			"translation":[
				-5.587935447692871e-09,
				0.8493930101394653,
				-2.0489096641540527e-08
			]
		},
		{
			"children":[
				7
			],
			"name":"\u30dc\u30fc\u30f3.014",
			"rotation":[
				0.05286150798201561,
				-0.0006931048701517284,
				0.022361142560839653,
				0.9983512163162231
			],
			"translation":[
				-5.9138983488082886e-08,
				0.9262648224830627,
				-1.862645149230957e-09
			]
		},
		{
			"children":[
				8
			],
			"name":"\u30dc\u30fc\u30f3.013",
			"rotation":[
				-0.4689648151397705,
				0.5527299642562866,
				-0.5785089731216431,
				0.3740173876285553
			],
			"scale":[
				0.9999999403953552,
				0.9999998807907104,
				0.9999999403953552
			],
			"translation":[
				1.1175870895385742e-08,
				0.9696952700614929,
				9.499490261077881e-08
			]
		},
		{
			"children":[
				9
			],
			"name":"\u30dc\u30fc\u30f3.012",
			"rotation":[
				0.13022860884666443,
				0.9298728108406067,
				0.03865193575620651,
				0.3418816924095154
			],
			"scale":[
				0.9999998807907104,
				0.9999999403953552,
				1
			],
			"translation":[
				-1.6391277313232422e-07,
				0.8576192855834961,
				1.4901161193847656e-07
			]
		},
		{
			"children":[
				10
			],
			"name":"\u30dc\u30fc\u30f3.011",
			"rotation":[
				0.6307552456855774,
				0.6324219107627869,
				-0.24199075996875763,
				0.37898653745651245
			],
			"scale":[
				1,
				1.0000001192092896,
				1
			],
			"translation":[
				0,
				0.9836130142211914,
				0
			]
		},
		{
			"name":"\u30dc\u30fc\u30f3.016",
			"rotation":[
				0.7787269353866577,
				1.561073913204693e-16,
				1.561074045553591e-16,
				0.6273630261421204
			],
			"translation":[
				0,
				0.9836130142211914,
				0
			]
		},
		{
			"children":[
				1,
				6,
				11,
				12
			],
			"name":"\u30dc\u30fc\u30f3.003",
			"translation":[
				0,
				1.1508691310882568,
				0
			]
		},
		{
			"children":[
				13
			],
			"name":"\u30dc\u30fc\u30f3.002",
			"translation":[
				0,
				0.8620827198028564,
				0
			]
		},
		{
			"children":[
				14
			],
			"name":"\u30dc\u30fc\u30f3.001",
			"translation":[
				0,
				1,
				0
			]
		},
		{
			"children":[
				15
			],
			"name":"\u30dc\u30fc\u30f3"
		},
		{
			"mesh":0,
			"name":"Backpack",
			"skin":0
		},
		{
			"mesh":1,
			"name":"Body",
			"skin":0
		},
		{
			"mesh":2,
			"name":"Head",
			"skin":0
		},
		{
			"mesh":3,
			"name":"LeftArm",
			"skin":0
		},
		{
			"mesh":4,
			"name":"RightArm",
			"skin":0
		},
		{
			"children":[
				17,
				18,
				19,
				20,
				21,
				16
			],
			"name":"armature",
			"translation":[
				0,
				-2.179704189300537,
				0
			]
		}
	],
	"materials":[
		{
			"doubleSided":true,
			"name":"Material",
			"pbrMetallicRoughness":{
				"baseColorFactor":[
					0.800000011920929,
					0.800000011920929,
					0.800000011920929,
					1
				],
				"metallicFactor":0,
				"roughnessFactor":0.5
			}
		}
	],
	"meshes":[
		{
			"name":"\u7acb\u65b9\u4f53.003",
			"primitives":[
				{
					"attributes":{
						"POSITION":0,
						"NORMAL":1,
						"TEXCOORD_0":2,
						"JOINTS_0":3,
						"WEIGHTS_0":4
					},
					"indices":5
				}
			]
		},
		{
			"name":"Cube",
			"primitives":[
				{
					"attributes":{
						"POSITION":7,
						"NORMAL":8,
						"TEXCOORD_0":9,
						"JOINTS_0":10,
						"WEIGHTS_0":11
					},
					"indices":12,
					"material":0
				}
			]
		},
		{
			"name":"\u7acb\u65b9\u4f53.002",
			"primitives":[
				{
					"attributes":{
						"POSITION":13,
						"NORMAL":14,
						"TEXCOORD_0":15,
						"JOINTS_0":16,
						"WEIGHTS_0":17
					},
					"indices":18
				}
			]
		},
		{
			"name":"\u7acb\u65b9\u4f53",
			"primitives":[
				{
					"attributes":{
						"POSITION":19,
						"NORMAL":20,
						"TEXCOORD_0":21,
						"JOINTS_0":22,
						"WEIGHTS_0":23
					},
					"indices":18
				}
			]
		},
		{
			"name":"\u7acb\u65b9\u4f53.001",
			"primitives":[
				{
					"attributes":{
						"POSITION":24,
						"NORMAL":25,
						"TEXCOORD_0":26,
						"JOINTS_0":27,
						"WEIGHTS_0":28
					},
					"indices":29
				}
			]
		}
	],
	"skins":[
		{
			"inverseBindMatrices":6,
			"joints":[
				16,
				15,
				14,
				13,
				1,
				0,
				6,
				5,
				4,
				3,
				2,
				11,
				10,
				9,
				8,
				7,
				12
			],
			"name":"armature"
		}
	],
	"accessors":[
		{
			"bufferView":0,
			"componentType":5126,
			"count":24,
			"max":[
				0.5146995186805725,
				1.9145102500915527,
				1.8644957542419434
			],
			"min":[
				-0.5146995186805725,
				0.8851112723350525,
				0.8350966572761536
			],
			"type":"VEC3"
		},
		{
			"bufferView":1,
			"componentType":5126,
			"count":24,
			"type":"VEC3"
		},
		{
			"bufferView":2,
			"componentType":5126,
			"count":24,
			"type":"VEC2"
		},
		{
			"bufferView":3,
			"componentType":5121,
			"count":24,
			"type":"VEC4"
		},
		{
			"bufferView":4,
			"componentType":5126,
			"count":24,
			"type":"VEC4"
		},
		{
			"bufferView":5,
			"componentType":5123,
			"count":36,
			"type":"SCALAR"
		},
		{
			"bufferView":6,
			"componentType":5126,
			"count":17,
			"type":"MAT4"
		},
		{
			"bufferView":7,
			"componentType":5126,
			"count":24,
			"max":[
				1.0000001192092896,
				2.204615592956543,
				1.0000001192092896
			],
			"min":[
				-1.0000001192092896,
				-2.369499683380127,
				-1.0000001192092896
			],
			"type":"VEC3"
		},
		{
			"bufferView":8,
			"componentType":5126,
			"count":24,
			"type":"VEC3"
		},
		{
			"bufferView":9,
			"componentType":5126,
			"count":24,
			"type":"VEC2"
		},
		{
			"bufferView":10,
			"componentType":5121,
			"count":24,
			"type":"VEC4"
		},
		{
			"bufferView":11,
			"componentType":5126,
			"count":24,
			"type":"VEC4"
		},
		{
			"bufferView":12,
			"componentType":5123,
			"count":36,
			"type":"SCALAR"
		},
		{
			"bufferView":13,
			"componentType":5126,
			"count":24,
			"max":[
				0.4202810227870941,
				3.1402997970581055,
				0.4320690333843231
			],
			"min":[
				-0.4434221386909485,
				1.8833675384521484,
				-0.4316340982913971
			],
			"type":"VEC3"
		},
		{
			"bufferView":14,
			"componentType":5126,
			"count":24,
			"type":"VEC3"
		},
		{
			"bufferView":15,
			"componentType":5126,
			"count":24,
			"type":"VEC2"
		},
		{
			"bufferView":16,
			"componentType":5121,
			"count":24,
			"type":"VEC4"
		},
		{
			"bufferView":17,
			"componentType":5126,
			"count":24,
			"type":"VEC4"
		},
		{
			"bufferView":18,
			"componentType":5123,
			"count":36,
			"type":"SCALAR"
		},
		{
			"bufferView":19,
			"componentType":5126,
			"count":24,
			"max":[
				-1.3637858629226685,
				2.52254319190979,
				0.4656003713607788
			],
			"min":[
				-2.2274889945983887,
				-0.646639347076416,
				-0.3981027603149414
			],
			"type":"VEC3"
		},
		{
			"bufferView":20,
			"componentType":5126,
			"count":24,
			"type":"VEC3"
		},
		{
			"bufferView":21,
			"componentType":5126,
			"count":24,
			"type":"VEC2"
		},
		{
			"bufferView":22,
			"componentType":5121,
			"count":24,
			"type":"VEC4"
		},
		{
			"bufferView":23,
			"componentType":5126,
			"count":24,
			"type":"VEC4"
		},
		{
			"bufferView":24,
			"componentType":5126,
			"count":24,
			"max":[
				2.151355266571045,
				2.52254319190979,
				0.42395949363708496
			],
			"min":[
				1.303436040878296,
				-0.646639347076416,
				-0.4239596426486969
			],
			"type":"VEC3"
		},
		{
			"bufferView":25,
			"componentType":5126,
			"count":24,
			"type":"VEC3"
		},
		{
			"bufferView":26,
			"componentType":5126,
			"count":24,
			"type":"VEC2"
		},
		{
			"bufferView":27,
			"componentType":5121,
			"count":24,
			"type":"VEC4"
		},
		{
			"bufferView":28,
			"componentType":5126,
			"count":24,
			"type":"VEC4"
		},
		{
			"bufferView":29,
			"componentType":5123,
			"count":36,
			"type":"SCALAR"
		}
	],
	"bufferViews":[
		{
			"buffer":0,
			"byteLength":288,
			"byteOffset":0,
			"target":34962
		},
		{
			"buffer":0,
			"byteLength":288,
			"byteOffset":288,
			"target":34962
		},
		{
			"buffer":0,
			"byteLength":192,
			"byteOffset":576,
			"target":34962
		},
		{
			"buffer":0,
			"byteLength":96,
			"byteOffset":768,
			"target":34962
		},
		{
			"buffer":0,
			"byteLength":384,
			"byteOffset":864,
			"target":34962
		},
		{
			"buffer":0,
			"byteLength":72,
			"byteOffset":1248,
			"target":34963
		},
		{
			"buffer":0,
			"byteLength":1088,
			"byteOffset":1320
		},
		{
			"buffer":0,
			"byteLength":288,
			"byteOffset":2408,
			"target":34962
		},
		{
			"buffer":0,
			"byteLength":288,
			"byteOffset":2696,
			"target":34962
		},
		{
			"buffer":0,
			"byteLength":192,
			"byteOffset":2984,
			"target":34962
		},
		{
			"buffer":0,
			"byteLength":96,
			"byteOffset":3176,
			"target":34962
		},
		{
			"buffer":0,
			"byteLength":384,
			"byteOffset":3272,
			"target":34962
		},
		{
			"buffer":0,
			"byteLength":72,
			"byteOffset":3656,
			"target":34963
		},
		{
			"buffer":0,
			"byteLength":288,
			"byteOffset":3728,
			"target":34962
		},
		{
			"buffer":0,
			"byteLength":288,
			"byteOffset":4016,
			"target":34962
		},
		{
			"buffer":0,
			"byteLength":192,
			"byteOffset":4304,
			"target":34962
		},
		{
			"buffer":0,
			"byteLength":96,
			"byteOffset":4496,
			"target":34962
		},
		{
			"buffer":0,
			"byteLength":384,
			"byteOffset":4592,
			"target":34962
		},
		{
			"buffer":0,
			"byteLength":72,
			"byteOffset":4976,
			"target":34963
		},
		{
			"buffer":0,
			"byteLength":288,
			"byteOffset":5048,
			"target":34962
		},
		{
			"buffer":0,
			"byteLength":288,
			"byteOffset":5336,
			"target":34962
		},
		{
			"buffer":0,
			"byteLength":192,
			"byteOffset":5624,
			"target":34962
		},
		{
			"buffer":0,
			"byteLength":96,
			"byteOffset":5816,
			"target":34962
		},
		{
			"buffer":0,
			"byteLength":384,
			"byteOffset":5912,
			"target":34962
		},
		{
			"buffer":0,
			"byteLength":288,
			"byteOffset":6296,
			"target":34962
		},
		{
			"buffer":0,
			"byteLength":288,
			"byteOffset":6584,
			"target":34962
		},
		{
			"buffer":0,
			"byteLength":192,
			"byteOffset":6872,
			"target":34962
		},
		{
			"buffer":0,
			"byteLength":96,
			"byteOffset":7064,
			"target":34962
		},
		{
			"buffer":0,
			"byteLength":384,
			"byteOffset":7160,
			"target":34962
		},
		{
			"buffer":0,
			"byteLength":72,
			"byteOffset":7544,
			"target":34963
		}
	],
	"buffers":[
		{
			"byteLength":7616,
			"uri":"player.bin"
		}
	]
}
