{
	"asset":{
		"generator":"Khronos glTF Blender I/O v4.1.63",
		"version":"2.0"
	},
	"scene":0,
	"scenes":[
		{
			"name":"Scene",
			"nodes":[
				62
			]
		}
	],
	"nodes":[
		{
			"name":"neck",
			"rotation":[
				0.17290863394737244,
				0.019642842933535576,
				0.04723203182220459,
				0.9836086630821228
			],
			"translation":[
				-3.7021333554321245e-08,
				0.6482181549072266,
				3.7082733683746483e-07
			]
		},
		{
			"children":[
				0
			],
			"name":"body.003",
			"rotation":[
				1.8944061271931878e-15,
				-1.7763568394002505e-15,
				1.734308806862222e-22,
				1
			],
			"translation":[
				2.3158970574588267e-10,
				0.7496776580810547,
				-8.988068067594668e-09
			]
		},
		{
			"name":"foreArm_right",
			"rotation":[
				1.9318630029019346e-10,
				7.52905009449023e-08,
				0.006356420926749706,
				0.9999797940254211
			],
			"scale":[
				1,
				0.9999999403953552,
				1
			],
			"translation":[
				-5.066610242465686e-07,
				0.3633781969547272,
				3.470063347776886e-09
			]
		},
		{
			"children":[
				2
			],
			"name":"elbow_right",
			"rotation":[
				3.7056080426367544e-10,
				-2.1992720178332092e-07,
				-0.01550491712987423,
				0.9998798370361328
			],
			"scale":[
				0.9999998807907104,
				0.9999999403953552,
				1
			],
			"translation":[
				2.5564719408066594e-07,
				1.3006459474563599,
				-8.85160602592805e-08
			]
		},
		{
			"children":[
				3
			],
			"name":"apperArm_right",
			"rotation":[
				-2.029736378972302e-09,
				2.6813756903720787e-07,
				-0.04143562912940979,
				0.9991412162780762
			],
			"translation":[
				1.793796116089652e-07,
				0.5835452675819397,
				-2.2627602902502986e-07
			]
		},
		{
			"children":[
				4
			],
			"name":"shoulder_right",
			"rotation":[
				2.711974786961946e-07,
				-2.2842682767532096e-07,
				0.7040615081787109,
				0.7101390957832336
			],
			"scale":[
				1,
				0.9999999403953552,
				1
			],
			"translation":[
				-4.7153394007182214e-06,
				0.8995624780654907,
				1.028250693480004e-07
			]
		},
		{
			"children":[
				5
			],
			"name":"body_joint_right",
			"rotation":[
				1.7724204326441395e-09,
				2.508274121737486e-07,
				0.034010518342256546,
				0.9994214773178101
			],
			"scale":[
				1,
				0.9999999403953552,
				1
			],
			"translation":[
				-8.921343805923243e-07,
				1.238472819328308,
				-9.802386813362318e-08
			]
		},
		{
			"children":[
				6
			],
			"name":"body_right",
			"rotation":[
				2.760756672159914e-07,
				-2.6183425916315173e-07,
				0.659428596496582,
				0.7517672181129456
			],
			"translation":[
				3.956880156863463e-09,
				0.7496776580810547,
				-8.988068067594668e-09
			]
		},
		{
			"name":"foreArm_left",
			"rotation":[
				-2.1055954202431337e-10,
				-2.1463243626840267e-08,
				-0.022677535191178322,
				0.9997428059577942
			],
			"translation":[
				-1.873373776106746e-07,
				0.3595258593559265,
				-5.868969310540706e-08
			]
		},
		{
			"children":[
				8
			],
			"name":"elbow_left",
			"rotation":[
				-3.033003570518389e-10,
				-1.7595257304492407e-06,
				0.0032678123097866774,
				0.999994695186615
			],
			"translation":[
				8.72189161782444e-07,
				1.3211441040039062,
				-1.2470650290197227e-08
			]
		},
		{
			"children":[
				9
			],
			"name":"apperArm_left",
			"rotation":[
				3.890596733668872e-09,
				2.084658035528264e-06,
				-0.031273115426301956,
				0.9995108842849731
			],
			"scale":[
				0.9999999403953552,
				0.9999998807907104,
				1
			],
			"translation":[
				-7.856071988499025e-07,
				0.6126434206962585,
				8.560618880437687e-09
			]
		},
		{
			"children":[
				10
			],
			"name":"shoulder_left",
			"rotation":[
				1.1852377745924514e-08,
				-2.1437138002511347e-06,
				-0.6289951205253601,
				0.7774092555046082
			],
			"scale":[
				1,
				1.0000001192092896,
				1
			],
			"translation":[
				5.511385552381398e-07,
				0.9563508033752441,
				5.066624453320401e-09
			]
		},
		{
			"children":[
				11
			],
			"name":"body_joint_left",
			"rotation":[
				2.328481629731982e-09,
				1.3883778819945292e-06,
				-0.032294243574142456,
				0.9994784593582153
			],
			"scale":[
				0.9999999403953552,
				0.9999999403953552,
				1
			],
			"translation":[
				-2.6492043048165215e-07,
				1.2384729385375977,
				-1.7788149619946125e-08
			]
		},
		{
			"children":[
				12
			],
			"name":"body_left",
			"rotation":[
				3.551806670998303e-08,
				-2.9356057140716985e-08,
				-0.6594286561012268,
				0.7517671585083008
			],
			"translation":[
				-0.0005112588405609131,
				0.7318544387817383,
				0.005337466951459646
			]
		},
		{
			"name":"weaponJointPoint_LT.tip",
			"rotation":[
				0.0003498471050988883,
				1.127229643316241e-05,
				0.00637853192165494,
				0.9999796152114868
			],
			"scale":[
				1,
				0.9999999403953552,
				1
			],
			"translation":[
				-2.0176885300315917e-06,
				1.9759143590927124,
				-3.6655692383646965e-06
			]
		},
		{
			"children":[
				14
			],
			"name":"weaponJointPoint_LT",
			"rotation":[
				-0.19046197831630707,
				-0.17865127325057983,
				-0.6995772123336792,
				0.6651313304901123
			],
			"translation":[
				2.682209014892578e-07,
				5.6534810066223145,
				1.5497207641601562e-06
			]
		},
		{
			"name":"weaponJointPoint_LT.002",
			"rotation":[
				7.206828911421326e-09,
				-3.2014217943299172e-09,
				5.723132523449692e-10,
				1
			],
			"scale":[
				0.9999999403953552,
				0.9999999403953552,
				0.9999999403953552
			],
			"translation":[
				6.705522537231445e-08,
				1.670925259590149,
				-2.682209014892578e-07
			]
		},
		{
			"children":[
				16
			],
			"name":"weaponJointPoint_LT.001",
			"rotation":[
				-0.10340499877929688,
				-1.35813465362844e-07,
				0.7131659984588623,
				0.693326473236084
			],
			"translation":[
				4.6193599700927734e-07,
				5.653478145599365,
				2.2798776626586914e-06
			]
		},
		{
			"children":[
				15,
				17
			],
			"name":"weaponArm_leftTop",
			"rotation":[
				0.24358762800693512,
				1.1641782293736469e-07,
				-0.7039849162101746,
				0.6671358942985535
			],
			"scale":[
				1.0000001192092896,
				1,
				1.0000001192092896
			],
			"translation":[
				-6.854534149169922e-07,
				1.6543864011764526,
				-1.2507662177085876e-06
			]
		},
		{
			"name":"weaponJointPoint_LB.tip",
			"rotation":[
				0.00568134943023324,
				-8.359837920579594e-06,
				0.0029212022200226784,
				0.9999796152114868
			],
			"scale":[
				1,
				0.9999999403953552,
				1
			],
			"translation":[
				-1.6769045032560825e-06,
				1.9759151935577393,
				1.0838266462087631e-06
			]
		},
		{
			"children":[
				19
			],
			"name":"weaponJointPoint_LB",
			"rotation":[
				-0.47130391001701355,
				0.21369880437850952,
				-0.5064677596092224,
				0.6897071599960327
			],
			"scale":[
				0.9999998807907104,
				0.9999998807907104,
				0.9999999403953552
			],
			"translation":[
				1.5497207641601562e-06,
				6.268115043640137,
				8.344650268554688e-07
			]
		},
		{
			"name":"weaponJointPoint_LB.002",
			"rotation":[
				1.499388346815067e-08,
				3.442983498302965e-08,
				-2.8210536129336106e-09,
				1
			],
			"scale":[
				0.9999999403953552,
				1,
				0.9999999403953552
			],
			"translation":[
				8.046627044677734e-07,
				1.6709256172180176,
				-7.748603820800781e-07
			]
		},
		{
			"children":[
				21
			],
			"name":"weaponJointPoint_LB.001",
			"rotation":[
				0.5416672825813293,
				-8.222146163916477e-08,
				0.4255301058292389,
				0.724928081035614
			],
			"scale":[
				0.9999999403953552,
				1,
				1
			],
			"translation":[
				2.384185791015625e-06,
				6.268117427825928,
				2.6226043701171875e-06
			]
		},
		{
			"children":[
				20,
				22
			],
			"name":"weaponArm_leftBottom",
			"rotation":[
				-0.4372355043888092,
				3.8689641712608136e-08,
				-0.4641932249069214,
				0.7702920436859131
			],
			"scale":[
				1.0000001192092896,
				1,
				1.0000001192092896
			],
			"translation":[
				-6.034970283508301e-07,
				1.6543866395950317,
				-3.2582320272922516e-06
			]
		},
		{
			"name":"weaponJointPoint_RT.tip",
			"rotation":[
				-0.00034985694219358265,
				-6.148549800855108e-06,
				-0.006378533784300089,
				0.9999796152114868
			],
			"scale":[
				1,
				0.9999999403953552,
				1
			],
			"translation":[
				4.023313522338867e-07,
				1.9759154319763184,
				1.037493348121643e-06
			]
		},
		{
			"children":[
				24
			],
			"name":"weaponJointPoint_RT",
			"rotation":[
				-0.6968495845794678,
				-0.6820777058601379,
				-0.2002118080854416,
				0.09532014280557632
			],
			"scale":[
				0.9999998211860657,
				0.9999998211860657,
				1
			],
			"translation":[
				-2.8312206268310547e-07,
				5.653480052947998,
				-3.8743019104003906e-07
			]
		},
		{
			"name":"weaponJointPoint_RT.002",
			"rotation":[
				2.983363556197105e-09,
				3.8009608260836103e-07,
				2.2881347927494744e-09,
				1
			],
			"scale":[
				0.9999998807907104,
				0.9999999403953552,
				0.9999998807907104
			],
			"translation":[
				-6.109476089477539e-07,
				1.6709257364273071,
				8.046627044677734e-07
			]
		},
		{
			"children":[
				26
			],
			"name":"weaponJointPoint_RT.001",
			"rotation":[
				0.0046664089895784855,
				-9.27305308096038e-08,
				0.7206083536148071,
				0.6933267116546631
			],
			"scale":[
				0.9999999403953552,
				0.9999999403953552,
				0.9999998807907104
			],
			"translation":[
				-2.9802322387695312e-08,
				5.65347957611084,
				-6.109476089477539e-07
			]
		},
		{
			"children":[
				25,
				27
			],
			"name":"weaponArm_rightTop",
			"rotation":[
				0.7033059597015381,
				-0.63955157995224,
				-0.2810027003288269,
				0.13180285692214966
			],
			"scale":[
				1.0000001192092896,
				1.000000238418579,
				1.0000001192092896
			],
			"translation":[
				-0.08251727372407913,
				1.903921365737915,
				-0.13766126334667206
			]
		},
		{
			"name":"weaponJointPoint_RB.tip",
			"rotation":[
				-0.005681316833943129,
				7.446075869665947e-06,
				-0.0029212269000709057,
				0.9999796152114868
			],
			"translation":[
				1.6819685697555542e-06,
				1.9759149551391602,
				1.6763806343078613e-07
			]
		},
		{
			"children":[
				29
			],
			"name":"weaponJointPoint_RB",
			"rotation":[
				0.1725538820028305,
				0.6581155061721802,
				-0.6699714064598083,
				0.2970646917819977
			],
			"scale":[
				0.9999998807907104,
				1.0000001192092896,
				0.9999999403953552
			],
			"translation":[
				3.5762786865234375e-07,
				6.268119812011719,
				8.344650268554688e-07
			]
		},
		{
			"name":"weaponJointPoint_RB.002",
			"rotation":[
				-4.1437395736920735e-09,
				-2.255547038032546e-08,
				-4.133724118560167e-08,
				1
			],
			"scale":[
				1,
				1,
				0.9999999403953552
			],
			"translation":[
				-1.7881393432617188e-07,
				1.6709262132644653,
				-6.258487701416016e-07
			]
		},
		{
			"children":[
				31
			],
			"name":"weaponJointPoint_RB.001",
			"rotation":[
				0.5939480662345886,
				8.222145453373741e-08,
				0.34886229038238525,
				0.7249281406402588
			],
			"scale":[
				1,
				0.9999998807907104,
				0.9999998807907104
			],
			"translation":[
				1.3113021850585938e-06,
				6.2681193351745605,
				-1.1920928955078125e-07
			]
		},
		{
			"children":[
				30,
				32
			],
			"name":"weaponArm_rightBottom",
			"rotation":[
				-0.6100102663040161,
				0.4961206018924713,
				0.22641099989414215,
				0.5748825073242188
			],
			"scale":[
				0.9999999403953552,
				0.9999999403953552,
				1
			],
			"translation":[
				-0.0825166329741478,
				1.9039208889007568,
				-0.13766151666641235
			]
		},
		{
			"name":"backpack.002",
			"rotation":[
				-1.6459671314805746e-07,
				3.585591912269592e-08,
				1.4784745872020721e-08,
				1
			],
			"scale":[
				1,
				1,
				1.0000001192092896
			],
			"translation":[
				2.146698534488678e-07,
				2.812575101852417,
				-1.1414522305130959e-07
			]
		},
		{
			"children":[
				34
			],
			"name":"backpack.001",
			"rotation":[
				-0.13588538765907288,
				-5.641800360223215e-09,
				0.02321639657020569,
				0.9904525279998779
			],
			"scale":[
				1,
				1.0000001192092896,
				1.0000001192092896
			],
			"translation":[
				-0.08251635730266571,
				1.9039214849472046,
				-0.13766033947467804
			]
		},
		{
			"children":[
				18,
				23,
				28,
				33,
				35
			],
			"name":"backpack",
			"rotation":[
				-0.7992066144943237,
				-0.045501708984375,
				0.04327527806162834,
				0.5977672338485718
			],
			"scale":[
				0.9999999403953552,
				1,
				1
			],
			"translation":[
				-0.0005111768841743469,
				0.7318572998046875,
				0.005336781498044729
			]
		},
		{
			"children":[
				1,
				7,
				13,
				36
			],
			"name":"body.002",
			"rotation":[
				3.350401129898232e-15,
				1.40337597732349e-23,
				1.0951214473057963e-22,
				1
			],
			"translation":[
				2.3159094086899756e-10,
				1.0334892272949219,
				-4.84605866546417e-09
			]
		},
		{
			"children":[
				37
			],
			"name":"body.001",
			"rotation":[
				1.2110365980137502e-31,
				-1.7763568394002505e-15,
				5.2081827585703344e-23,
				1
			],
			"translation":[
				2.3159085760227072e-10,
				1,
				1.938376037458056e-08
			]
		},
		{
			"name":"toes_right",
			"rotation":[
				0.010035477578639984,
				-5.3774368069525735e-08,
				0.6043211817741394,
				0.7966776490211487
			],
			"scale":[
				1,
				1,
				0.9999999403953552
			],
			"translation":[
				1.2831741003083152e-07,
				2.9891247749328613,
				-1.603115293846713e-07
			]
		},
		{
			"name":"heels_right",
			"rotation":[
				0.001998579828068614,
				-4.8919538642167026e-08,
				-0.30826854705810547,
				0.9512972831726074
			],
			"scale":[
				1,
				1,
				0.9999999403953552
			],
			"translation":[
				-5.04966664038875e-08,
				2.9891257286071777,
				-1.556549023007392e-07
			]
		},
		{
			"children":[
				39,
				40
			],
			"name":"shin_right",
			"rotation":[
				-0.0023474255576729774,
				-1.614630207313894e-07,
				2.451815417359171e-10,
				0.9999972581863403
			],
			"translation":[
				7.154131509423678e-08,
				0.813930332660675,
				3.090956397500122e-07
			]
		},
		{
			"name":"knees_right.002",
			"rotation":[
				-0.01746644265949726,
				1.176620045839627e-07,
				-0.045671213418245316,
				0.9988038539886475
			],
			"scale":[
				1,
				0.9999999403953552,
				0.9999999403953552
			],
			"translation":[
				1.8673017621040344e-07,
				1.6816139221191406,
				7.916241884231567e-08
			]
		},
		{
			"children":[
				42
			],
			"name":"knees_right.001",
			"rotation":[
				0.006476141978055239,
				-3.317458947549312e-07,
				-0.4668530821800232,
				0.8843111991882324
			],
			"translation":[
				2.5035521389327187e-07,
				0.8139308094978333,
				7.067698959417612e-08
			]
		},
		{
			"children":[
				41,
				43
			],
			"name":"knees_right",
			"rotation":[
				7.106760513408972e-09,
				-7.634212373375249e-09,
				2.087551323210618e-14,
				1
			],
			"translation":[
				2.0468718275878928e-08,
				1.8173134326934814,
				9.993151195430983e-09
			]
		},
		{
			"children":[
				44
			],
			"name":"thighs_right",
			"rotation":[
				-0.6974236369132996,
				-2.5339254250411614e-08,
				-7.447905403523691e-08,
				0.7166591882705688
			],
			"scale":[
				1,
				0.9999999403953552,
				0.9999999403953552
			],
			"translation":[
				-1.6188130302907666e-07,
				1.0318288803100586,
				-2.8562720899572014e-07
			]
		},
		{
			"name":"waist_joint_right.005",
			"rotation":[
				-0.47588852047920227,
				0,
				-0.5650168061256409,
				0.6740075349807739
			],
			"scale":[
				0.9999999403953552,
				0.9999998807907104,
				0.9999998807907104
			],
			"translation":[
				6.854534149169922e-07,
				0.6118741631507874,
				3.119930624961853e-07
			]
		},
		{
			"children":[
				46
			],
			"name":"waist_joint_right.004",
			"rotation":[
				0.18357126414775848,
				-2.850400804277342e-09,
				-0.07420385628938675,
				0.9802017211914062
			],
			"translation":[
				-7.247432876056337e-08,
				1.0318297147750854,
				-7.438379157065356e-07
			]
		},
		{
			"children":[
				45,
				47
			],
			"name":"waist_joint_right",
			"rotation":[
				-0.5067545771598816,
				0.4931529462337494,
				0.506754457950592,
				0.4931529760360718
			],
			"scale":[
				0.9999998211860657,
				0.9999997019767761,
				0.9999998807907104
			],
			"translation":[
				-3.329602193957726e-08,
				9.5367431640625e-07,
				1.4957562299855454e-08
			]
		},
		{
			"name":"toes_left",
			"rotation":[
				-0.0054361941292881966,
				-0.00606216536834836,
				0.6043803095817566,
				0.7966544032096863
			],
			"scale":[
				1,
				1,
				0.9999998807907104
			],
			"translation":[
				-5.658102253391917e-08,
				2.9891247749328613,
				-2.2467975213658065e-07
			]
		},
		{
			"name":"heels_left",
			"rotation":[
				-0.001998737221583724,
				6.308448519121157e-08,
				-0.30826839804649353,
				0.9512973427772522
			],
			"translation":[
				-5.658102253391917e-08,
				2.9891247749328613,
				-2.2467975213658065e-07
			]
		},
		{
			"children":[
				49,
				50
			],
			"name":"shin_left",
			"rotation":[
				0.0023473494220525026,
				-4.18246258959698e-07,
				7.534496582195516e-09,
				0.9999972581863403
			],
			"translation":[
				1.2333566701272503e-07,
				0.813930094242096,
				-2.166673311876366e-07
			]
		},
		{
			"name":"knees_left.002",
			"rotation":[
				-0.017466535791754723,
				-1.4033190609552548e-07,
				-0.04567122831940651,
				0.9988038539886475
			],
			"translation":[
				1.2079253792762756e-06,
				1.681614637374878,
				1.955777406692505e-08
			]
		},
		{
			"children":[
				52
			],
			"name":"knees_left.001",
			"rotation":[
				0.0064762351103127,
				-1.203237047775474e-07,
				-0.4668531119823456,
				0.8843111991882324
			],
			"scale":[
				1,
				1,
				1.0000001192092896
			],
			"translation":[
				-2.5675941373037858e-08,
				0.813930094242096,
				-3.3587664916012727e-07
			]
		},
		{
			"children":[
				51,
				53
			],
			"name":"knees_left",
			"rotation":[
				6.175393973961718e-09,
				-7.634107568321724e-09,
				-7.445223548785407e-09,
				1
			],
			"translation":[
				8.99703778145522e-08,
				1.8173125982284546,
				-2.685111439859611e-07
			]
		},
		{
			"children":[
				54
			],
			"name":"thighs_left",
			"rotation":[
				0.6974235773086548,
				2.8820662123507645e-07,
				-1.9769962023019616e-07,
				0.7166591882705688
			],
			"translation":[
				-3.676530724305849e-08,
				1.0318288803100586,
				6.65702543756197e-07
			]
		},
		{
			"name":"waist_joint_right.003",
			"rotation":[
				0.4807637631893158,
				1.2850338748648937e-07,
				-0.5797964334487915,
				0.6578011512756348
			],
			"scale":[
				1,
				1,
				0.9999999403953552
			],
			"translation":[
				-2.384185791015625e-07,
				0.566068708896637,
				7.194466888904572e-08
			]
		},
		{
			"children":[
				56
			],
			"name":"waist_joint_right.002",
			"rotation":[
				-0.12930695712566376,
				1.498879385053442e-07,
				0.03325780853629112,
				0.9910467863082886
			],
			"translation":[
				-1.2617179834251147e-07,
				1.0318286418914795,
				1.6268274976027897e-06
			]
		},
		{
			"children":[
				55,
				57
			],
			"name":"waist_joint_right.001",
			"rotation":[
				0.5067543983459473,
				0.49315276741981506,
				-0.5067547559738159,
				0.49315309524536133
			],
			"scale":[
				0.9999998211860657,
				0.9999997615814209,
				0.9999998807907104
			],
			"translation":[
				-0.0005113072693347931,
				-0.017821788787841797,
				0.005337580572813749
			]
		},
		{
			"children":[
				38,
				48,
				58
			],
			"name":"waist",
			"rotation":[
				-8.557137221032463e-09,
				2.3956703287808523e-08,
				-4.10001586497675e-16,
				1
			],
			"translation":[
				0.03508281707763672,
				0,
				0
			]
		},
		{
			"name":"neutral_bone",
			"rotation":[
				0.7071067690849304,
				2.9181840943692805e-08,
				7.758831088722218e-08,
				0.7071067690849304
			]
		},
		{
			"mesh":0,
			"name":"\u7acb\u65b9\u4f53",
			"skin":0
		},
		{
			"children":[
				61,
				59,
				60
			],
			"name":"armature",
			"translation":[
				-0.024333953857421875,
				6.516746520996094,
				-0.37414854764938354
			]
		}
	],
	"meshes":[
		{
			"name":"mecha",
			"primitives":[
				{
					"attributes":{
						"POSITION":0,
						"NORMAL":1,
						"TEXCOORD_0":2,
						"JOINTS_0":3,
						"WEIGHTS_0":4
					},
					"indices":5
				}
			]
		}
	],
	"skins":[
		{
			"inverseBindMatrices":6,
			"joints":[
				59,
				38,
				37,
				1,
				0,
				7,
				6,
				5,
				4,
				3,
				2,
				13,
				12,
				11,
				10,
				9,
				8,
				36,
				18,
				15,
				14,
				17,
				16,
				23,
				20,
				19,
				22,
				21,
				28,
				25,
				24,
				27,
				26,
				33,
				30,
				29,
				32,
				31,
				35,
				34,
				48,
				45,
				44,
				41,
				39,
				40,
				43,
				42,
				47,
				46,
				58,
				55,
				54,
				51,
				49,
				50,
				53,
				52,
				57,
				56,
				60
			],
			"name":"armature"
		}
	],
	"accessors":[
		{
			"bufferView":0,
			"componentType":5126,
			"count":13221,
			"max":[
				3.178180694580078,
				11.227659225463867,
				2.340117931365967
			],
			"min":[
				-2.983088254928589,
				-0.19282245635986328,
				-4.005415916442871
			],
			"type":"VEC3"
		},
		{
			"bufferView":1,
			"componentType":5126,
			"count":13221,
			"type":"VEC3"
		},
		{
			"bufferView":2,
			"componentType":5126,
			"count":13221,
			"type":"VEC2"
		},
		{
			"bufferView":3,
			"componentType":5121,
			"count":13221,
			"type":"VEC4"
		},
		{
			"bufferView":4,
			"componentType":5126,
			"count":13221,
			"type":"VEC4"
		},
		{
			"bufferView":5,
			"componentType":5123,
			"count":22146,
			"type":"SCALAR"
		},
		{
			"bufferView":6,
			"componentType":5126,
			"count":61,
			"type":"MAT4"
		}
	],
	"bufferViews":[
		{
			"buffer":0,
			"byteLength":158652,
			"byteOffset":0,
			"target":34962
		},
		{
			"buffer":0,
			"byteLength":158652,
			"byteOffset":158652,
			"target":34962
		},
		{
			"buffer":0,
			"byteLength":105768,
			"byteOffset":317304,
			"target":34962
		},
		{
			"buffer":0,
			"byteLength":52884,
			"byteOffset":423072,
			"target":34962
		},
		{
			"buffer":0,
			"byteLength":211536,
			"byteOffset":475956,
			"target":34962
		},
		{
			"buffer":0,
			"byteLength":44292,
			"byteOffset":687492,
			"target":34963
		},
		{
			"buffer":0,
			"byteLength":3904,
			"byteOffset":731784
		}
	],
	"buffers":[
		{
			"byteLength":735688,
			"uri":"Player_Model_ver2.0.bin"
		}
	]
}
