{
	"asset":{
		"generator":"Khronos glTF Blender I/O v4.1.63",
		"version":"2.0"
	},
	"scene":0,
	"scenes":[
		{
			"name":"Scene",
			"nodes":[
				48
			]
		}
	],
	"nodes":[
		{
			"name":"neck",
			"rotation":[
				0.17290860414505005,
				0.019642870873212814,
				0.04723203927278519,
				0.983608603477478
			],
			"scale":[
				1,
				0.9999999403953552,
				1.0000001192092896
			],
			"translation":[
				0,
				0.6482229232788086,
				0
			]
		},
		{
			"children":[
				0
			],
			"name":"body.003",
			"translation":[
				0,
				0.7496776580810547,
				0
			]
		},
		{
			"name":"foreArm_right",
			"rotation":[
				1.4804146797331441e-09,
				1.9635075432233862e-07,
				0.006356506142765284,
				0.9999798536300659
			],
			"scale":[
				0.9999999403953552,
				0.9999999403953552,
				1
			],
			"translation":[
				-2.387886866017652e-07,
				0.36337754130363464,
				-4.800995156983845e-10
			]
		},
		{
			"children":[
				2
			],
			"name":"elbow_right",
			"rotation":[
				-2.712672531046678e-09,
				-3.435355893088854e-07,
				-0.015504968352615833,
				0.9998798370361328
			],
			"scale":[
				0.9999999403953552,
				1,
				1
			],
			"translation":[
				-9.937380696101172e-08,
				1.3006478548049927,
				6.019060094786255e-08
			]
		},
		{
			"children":[
				3
			],
			"name":"apperArm_right",
			"rotation":[
				-6.20704954101825e-09,
				2.3637110757590563e-07,
				-0.04143550246953964,
				0.9991412162780762
			],
			"scale":[
				0.9999999403953552,
				1,
				1
			],
			"translation":[
				8.540123985767423e-08,
				0.5835462212562561,
				-6.356566473186831e-08
			]
		},
		{
			"children":[
				4
			],
			"name":"shoulder_right",
			"rotation":[
				1.501908144518893e-07,
				-1.3141497845481354e-07,
				0.7040612697601318,
				0.7101392149925232
			],
			"translation":[
				-1.8495212543712114e-06,
				0.8995621204376221,
				-1.246083680683796e-08
			]
		},
		{
			"children":[
				5
			],
			"name":"body_joint_right",
			"rotation":[
				5.117686274758171e-09,
				1.0547202577981807e-07,
				0.034010499715805054,
				0.9994214773178101
			],
			"scale":[
				1,
				0.9999999403953552,
				1
			],
			"translation":[
				-7.807589099684265e-07,
				1.2384731769561768,
				-6.786635253774875e-09
			]
		},
		{
			"children":[
				6
			],
			"name":"body_right",
			"rotation":[
				1.2996238751838973e-07,
				-1.3488565286934318e-07,
				0.659428596496582,
				0.7517672181129456
			],
			"translation":[
				0,
				0.7496776580810547,
				0
			]
		},
		{
			"name":"foreArm_left",
			"rotation":[
				-3.077182952893054e-08,
				-2.191514703042685e-08,
				-0.022677678614854813,
				0.9997428059577942
			],
			"scale":[
				0.9999999403953552,
				0.9999999403953552,
				1
			],
			"translation":[
				2.598867467895616e-07,
				0.3595241904258728,
				-1.0800476957228966e-08
			]
		},
		{
			"children":[
				8
			],
			"name":"elbow_left",
			"rotation":[
				-2.4640762319450005e-08,
				-1.6362627093258197e-06,
				0.0032678868155926466,
				0.999994695186615
			],
			"translation":[
				-8.321893574247952e-08,
				1.3211441040039062,
				1.739522303978447e-08
			]
		},
		{
			"children":[
				9
			],
			"name":"apperArm_left",
			"rotation":[
				-1.0767029046121479e-08,
				1.9443416476860875e-06,
				-0.03127328306436539,
				0.9995108842849731
			],
			"translation":[
				-8.461324796371628e-08,
				0.6126440167427063,
				1.2428245099727064e-08
			]
		},
		{
			"children":[
				10
			],
			"name":"shoulder_left",
			"rotation":[
				-1.0642731496091073e-07,
				-2.081259935948765e-06,
				-0.6289950609207153,
				0.7774093151092529
			],
			"scale":[
				1,
				0.9999999403953552,
				1
			],
			"translation":[
				8.593315214966424e-08,
				0.9563512206077576,
				-2.5610546572352177e-08
			]
		},
		{
			"children":[
				11
			],
			"name":"body_joint_left",
			"rotation":[
				3.011770033367611e-08,
				1.3511209999705898e-06,
				-0.03229421749711037,
				0.9994784593582153
			],
			"translation":[
				-3.232192469226902e-08,
				1.2384732961654663,
				1.7857299638990298e-08
			]
		},
		{
			"children":[
				12
			],
			"name":"body_left",
			"rotation":[
				-6.528858786936098e-09,
				-2.568900114852113e-08,
				-0.6594287157058716,
				0.7517671585083008
			],
			"scale":[
				0.9999999403953552,
				0.9999999403953552,
				1
			],
			"translation":[
				-0.0005113668739795685,
				0.7318553924560547,
				0.00533747673034668
			]
		},
		{
			"name":"weaponJointPoint_LT.tip",
			"rotation":[
				0.00034983656951226294,
				3.7972326936142053e-06,
				0.006378521677106619,
				0.9999796152114868
			],
			"scale":[
				0.9999999403953552,
				0.9999999403953552,
				0.9999999403953552
			],
			"translation":[
				-4.928806447423995e-07,
				1.9759165048599243,
				-1.2083910405635834e-06
			]
		},
		{
			"children":[
				14
			],
			"name":"weaponJointPoint_LT",
			"rotation":[
				-0.19045694172382355,
				-0.17864632606506348,
				-0.6995787024497986,
				0.6651325821876526
			],
			"scale":[
				1,
				0.9999999403953552,
				1
			],
			"translation":[
				1.7881393432617188e-07,
				5.653482913970947,
				-6.109476089477539e-07
			]
		},
		{
			"children":[
				15
			],
			"name":"weaponArm_leftTop",
			"rotation":[
				0.24358762800693512,
				3.175031793034577e-08,
				-0.7039848566055298,
				0.6671359539031982
			],
			"scale":[
				1.0000001192092896,
				0.9999999403953552,
				1
			],
			"translation":[
				-1.862645149230957e-08,
				1.6543868780136108,
				-1.6158446669578552e-07
			]
		},
		{
			"name":"weaponJointPoint_LB.tip",
			"rotation":[
				0.005681108217686415,
				-2.5908184397849254e-06,
				0.002921187784522772,
				0.9999796152114868
			],
			"scale":[
				1,
				1,
				1.0000001192092896
			],
			"translation":[
				5.715410225093365e-07,
				1.9759162664413452,
				8.979695849120617e-07
			]
		},
		{
			"children":[
				17
			],
			"name":"weaponJointPoint_LB",
			"rotation":[
				-0.4713064730167389,
				0.2136951982975006,
				-0.5064651966094971,
				0.6897083520889282
			],
			"scale":[
				1.0000001192092896,
				1,
				1.0000001192092896
			],
			"translation":[
				0,
				6.268118858337402,
				-5.960464477539062e-07
			]
		},
		{
			"children":[
				18
			],
			"name":"weaponArm_leftBottom",
			"rotation":[
				-0.43723565340042114,
				9.672410428152034e-09,
				-0.46419304609298706,
				0.7702920436859131
			],
			"scale":[
				1,
				1.0000001192092896,
				1.0000001192092896
			],
			"translation":[
				-1.862645149230957e-08,
				1.6543868780136108,
				-1.6158446669578552e-07
			]
		},
		{
			"name":"weaponJointPoint_RT.tip",
			"rotation":[
				-0.0003498204459901899,
				-2.017591668845853e-06,
				-0.006378527730703354,
				0.9999796152114868
			],
			"scale":[
				0.9999999403953552,
				0.9999998807907104,
				0.9999999403953552
			],
			"translation":[
				-4.353933036327362e-08,
				1.9759165048599243,
				9.704381227493286e-07
			]
		},
		{
			"children":[
				20
			],
			"name":"weaponJointPoint_RT",
			"rotation":[
				-0.6968504190444946,
				-0.6820780634880066,
				-0.20020897686481476,
				0.09531742334365845
			],
			"scale":[
				0.9999999403953552,
				1,
				1
			],
			"translation":[
				-2.8312206268310547e-07,
				5.653483867645264,
				1.4901161193847656e-07
			]
		},
		{
			"children":[
				21
			],
			"name":"weaponArm_rightTop",
			"rotation":[
				0.7033059000968933,
				-0.6395515203475952,
				-0.28100287914276123,
				0.13180296123027802
			],
			"scale":[
				1,
				0.9999997615814209,
				1
			],
			"translation":[
				-0.08251634985208511,
				1.9039227962493896,
				-0.137659952044487
			]
		},
		{
			"name":"weaponJointPoint_RB.tip",
			"rotation":[
				-0.005681120324879885,
				2.434353064018069e-06,
				-0.0029211328364908695,
				0.9999796152114868
			],
			"scale":[
				1,
				0.9999998807907104,
				0.9999999403953552
			],
			"translation":[
				4.954636096954346e-07,
				1.9759165048599243,
				4.2282044887542725e-07
			]
		},
		{
			"children":[
				23
			],
			"name":"weaponJointPoint_RB",
			"rotation":[
				0.1725570410490036,
				0.65811687707901,
				-0.669970691204071,
				0.29706141352653503
			],
			"scale":[
				0.9999999403953552,
				1,
				1
			],
			"translation":[
				1.0728836059570312e-06,
				6.268120765686035,
				8.344650268554688e-07
			]
		},
		{
			"children":[
				24
			],
			"name":"weaponArm_rightBottom",
			"rotation":[
				-0.6100102663040161,
				0.4961204528808594,
				0.22641095519065857,
				0.5748826861381531
			],
			"scale":[
				1,
				0.9999999403953552,
				0.9999999403953552
			],
			"translation":[
				-0.08251634985208511,
				1.9039227962493896,
				-0.137659952044487
			]
		},
		{
			"children":[
				16,
				19,
				22,
				25
			],
			"name":"backpack",
			"rotation":[
				-0.7992066144943237,
				-0.04550168290734291,
				0.04327530413866043,
				0.597767174243927
			],
			"scale":[
				0.9999999403953552,
				1,
				1.0000001192092896
			],
			"translation":[
				-0.0005113668739795685,
				0.7318553924560547,
				0.00533747673034668
			]
		},
		{
			"children":[
				1,
				7,
				13,
				26
			],
			"name":"body.002",
			"translation":[
				0,
				1.0334892272949219,
				0
			]
		},
		{
			"children":[
				27
			],
			"name":"body.001",
			"translation":[
				0,
				1,
				0
			]
		},
		{
			"name":"toes_right",
			"rotation":[
				0.010035436600446701,
				-6.400320273769466e-08,
				0.604321300983429,
				0.7966775298118591
			],
			"scale":[
				0.9999999403953552,
				1,
				0.9999999403953552
			],
			"translation":[
				-6.673410268831503e-09,
				2.9891257286071777,
				-1.0331065425361885e-07
			]
		},
		{
			"name":"heels_right",
			"rotation":[
				0.0019985660910606384,
				-5.8893121490655176e-08,
				-0.30826830863952637,
				0.951297402381897
			],
			"scale":[
				1,
				1,
				0.9999999403953552
			],
			"translation":[
				-6.673410268831503e-09,
				2.9891257286071777,
				-1.0331065425361885e-07
			]
		},
		{
			"children":[
				29,
				30
			],
			"name":"shin_right",
			"rotation":[
				-0.0023474018089473248,
				-6.541284136574177e-08,
				-2.368939940045056e-11,
				0.9999972581863403
			],
			"scale":[
				1,
				0.9999999403953552,
				1
			],
			"translation":[
				2.3987553277038387e-08,
				0.8139308094978333,
				1.6146691450558137e-07
			]
		},
		{
			"children":[
				31
			],
			"name":"knees_right",
			"rotation":[
				9.962221308036211e-16,
				7.856215339190585e-15,
				-1.1289260203202998e-14,
				1
			],
			"translation":[
				4.393943697778013e-08,
				1.817311406135559,
				1.6146690029472666e-07
			]
		},
		{
			"children":[
				32
			],
			"name":"thighs_right",
			"rotation":[
				-0.6974235773086548,
				4.609017167922502e-09,
				-4.811943909999172e-08,
				0.7166592478752136
			],
			"scale":[
				1,
				0.9999999403953552,
				0.9999999403953552
			],
			"translation":[
				1.715501340981973e-08,
				1.0318291187286377,
				1.0714398257505309e-09
			]
		},
		{
			"name":"waist_joint_right.005",
			"rotation":[
				-0.47588858008384705,
				0,
				-0.5650169849395752,
				0.6740074157714844
			],
			"scale":[
				0.9999998807907104,
				0.9999999403953552,
				0.9999999403953552
			],
			"translation":[
				2.2351741790771484e-08,
				0.6118736863136292,
				-2.1327286958694458e-07
			]
		},
		{
			"children":[
				34
			],
			"name":"waist_joint_right.004",
			"rotation":[
				0.18357132375240326,
				-7.126002454782565e-09,
				-0.07420390099287033,
				0.9802017211914062
			],
			"scale":[
				1,
				1,
				0.9999999403953552
			],
			"translation":[
				1.715501340981973e-08,
				1.0318291187286377,
				1.0714398257505309e-09
			]
		},
		{
			"children":[
				33,
				35
			],
			"name":"waist_joint_right",
			"rotation":[
				-0.5067545771598816,
				0.4931529760360718,
				0.5067545771598816,
				0.49315300583839417
			],
			"scale":[
				0.9999999403953552,
				0.9999999403953552,
				0.9999999403953552
			]
		},
		{
			"name":"toes_left",
			"rotation":[
				-0.005436347331851721,
				-0.006062149070203304,
				0.604380190372467,
				0.796654462814331
			],
			"scale":[
				1,
				1,
				0.9999999403953552
			],
			"translation":[
				-2.4783069818568038e-08,
				2.9891245365142822,
				-6.023086029927072e-08
			]
		},
		{
			"name":"heels_left",
			"rotation":[
				-0.001998747466132045,
				-2.9247704702584087e-08,
				-0.3082684278488159,
				0.9512973427772522
			],
			"scale":[
				1,
				1.0000001192092896,
				1
			],
			"translation":[
				-2.4783069818568038e-08,
				2.9891245365142822,
				-6.023086029927072e-08
			]
		},
		{
			"children":[
				37,
				38
			],
			"name":"shin_left",
			"rotation":[
				0.002347402973100543,
				-2.9292061753949383e-07,
				7.912764665718441e-09,
				0.9999972581863403
			],
			"translation":[
				-1.4651625690476067e-08,
				0.8139311671257019,
				4.198519221176866e-08
			]
		},
		{
			"children":[
				39
			],
			"name":"knees_left",
			"rotation":[
				-9.31322907682386e-10,
				-3.952349583139121e-14,
				-7.634109344678564e-09,
				1
			],
			"translation":[
				3.704101914081548e-09,
				1.817312240600586,
				5.065312080887452e-08
			]
		},
		{
			"children":[
				40
			],
			"name":"thighs_left",
			"rotation":[
				0.6974235773086548,
				1.8528729128775012e-07,
				-1.3014967237268138e-07,
				0.7166591882705688
			],
			"translation":[
				-1.2894237677585352e-08,
				1.0318289995193481,
				2.6045637468996574e-07
			]
		},
		{
			"name":"waist_joint_right.003",
			"rotation":[
				0.4807637929916382,
				2.5700677142026507e-08,
				-0.5797964334487915,
				0.65780109167099
			],
			"scale":[
				0.9999999403953552,
				0.9999999403953552,
				1
			],
			"translation":[
				-7.450580596923828e-09,
				0.5660695433616638,
				2.582091838121414e-07
			]
		},
		{
			"children":[
				42
			],
			"name":"waist_joint_right.002",
			"rotation":[
				-0.12930694222450256,
				2.8896890214014093e-08,
				0.033257804811000824,
				0.9910467863082886
			],
			"translation":[
				-1.2894237677585352e-08,
				1.0318289995193481,
				2.6045637468996574e-07
			]
		},
		{
			"children":[
				41,
				43
			],
			"name":"waist_joint_right.001",
			"rotation":[
				0.5067545175552368,
				0.493152916431427,
				-0.5067546367645264,
				0.49315306544303894
			],
			"scale":[
				0.9999999403953552,
				0.9999999403953552,
				0.9999999403953552
			],
			"translation":[
				-0.0005113668739795685,
				-0.017821788787841797,
				0.00533747673034668
			]
		},
		{
			"children":[
				28,
				36,
				44
			],
			"name":"waist",
			"translation":[
				0.03508281707763672,
				0,
				0
			]
		},
		{
			"name":"neutral_bone",
			"rotation":[
				-0.7071067690849304,
				0,
				0,
				0.7071067690849304
			]
		},
		{
			"mesh":0,
			"name":"\u7acb\u65b9\u4f53",
			"skin":0
		},
		{
			"children":[
				47,
				45,
				46
			],
			"name":"armature",
			"translation":[
				-0.024333953857421875,
				6.516746520996094,
				-0.37414854764938354
			]
		}
	],
	"meshes":[
		{
			"name":"mecha",
			"primitives":[
				{
					"attributes":{
						"POSITION":0,
						"NORMAL":1,
						"TEXCOORD_0":2,
						"JOINTS_0":3,
						"WEIGHTS_0":4
					},
					"indices":5
				}
			]
		}
	],
	"skins":[
		{
			"inverseBindMatrices":6,
			"joints":[
				45,
				28,
				27,
				1,
				0,
				7,
				6,
				5,
				4,
				3,
				2,
				13,
				12,
				11,
				10,
				9,
				8,
				26,
				16,
				15,
				14,
				19,
				18,
				17,
				22,
				21,
				20,
				25,
				24,
				23,
				36,
				33,
				32,
				31,
				29,
				30,
				35,
				34,
				44,
				41,
				40,
				39,
				37,
				38,
				43,
				42,
				46
			],
			"name":"armature"
		}
	],
	"accessors":[
		{
			"bufferView":0,
			"componentType":5126,
			"count":12404,
			"max":[
				3.1781814098358154,
				11.227663040161133,
				2.340117931365967
			],
			"min":[
				-2.9830873012542725,
				-0.19282007217407227,
				-4.005415916442871
			],
			"type":"VEC3"
		},
		{
			"bufferView":1,
			"componentType":5126,
			"count":12404,
			"type":"VEC3"
		},
		{
			"bufferView":2,
			"componentType":5126,
			"count":12404,
			"type":"VEC2"
		},
		{
			"bufferView":3,
			"componentType":5121,
			"count":12404,
			"type":"VEC4"
		},
		{
			"bufferView":4,
			"componentType":5126,
			"count":12404,
			"type":"VEC4"
		},
		{
			"bufferView":5,
			"componentType":5123,
			"count":22146,
			"type":"SCALAR"
		},
		{
			"bufferView":6,
			"componentType":5126,
			"count":47,
			"type":"MAT4"
		}
	],
	"bufferViews":[
		{
			"buffer":0,
			"byteLength":148848,
			"byteOffset":0,
			"target":34962
		},
		{
			"buffer":0,
			"byteLength":148848,
			"byteOffset":148848,
			"target":34962
		},
		{
			"buffer":0,
			"byteLength":99232,
			"byteOffset":297696,
			"target":34962
		},
		{
			"buffer":0,
			"byteLength":49616,
			"byteOffset":396928,
			"target":34962
		},
		{
			"buffer":0,
			"byteLength":198464,
			"byteOffset":446544,
			"target":34962
		},
		{
			"buffer":0,
			"byteLength":44292,
			"byteOffset":645008,
			"target":34963
		},
		{
			"buffer":0,
			"byteLength":3008,
			"byteOffset":689300
		}
	],
	"buffers":[
		{
			"byteLength":692308,
			"uri":"Player_Model_Ver2.0.bin"
		}
	]
}
