{
	"asset":{
		"generator":"Khronos glTF Blender I/O v4.1.63",
		"version":"2.0"
	},
	"scene":0,
	"scenes":[
		{
			"name":"Scene",
			"nodes":[
				62
			]
		}
	],
	"nodes":[
		{
			"name":"neck",
			"rotation":[
				0.17290860414505005,
				0.019642852246761322,
				0.04723203927278519,
				0.983608603477478
			],
			"scale":[
				1,
				0.9999999403953552,
				1.0000001192092896
			],
			"translation":[
				1.4669192083260896e-08,
				0.6482200622558594,
				4.285473664822348e-08
			]
		},
		{
			"children":[
				0
			],
			"name":"body.003",
			"rotation":[
				3.467670723863222e-15,
				-3.552713678800501e-15,
				7.832487594146523e-23,
				1
			],
			"translation":[
				-2.3196490561705474e-10,
				0.7496776580810547,
				-9.135164624751724e-09
			]
		},
		{
			"name":"foreArm_right",
			"rotation":[
				-2.936190179880782e-10,
				2.1938878091987135e-07,
				0.006356413941830397,
				0.9999797940254211
			],
			"scale":[
				0.9999998807907104,
				0.9999998807907104,
				1
			],
			"translation":[
				-2.7217376441512897e-07,
				0.36337798833847046,
				3.188461050740443e-09
			]
		},
		{
			"children":[
				2
			],
			"name":"elbow_right",
			"rotation":[
				-1.8254792122363028e-10,
				-3.092761744483141e-07,
				-0.015504894778132439,
				0.9998798370361328
			],
			"scale":[
				0.9999998807907104,
				0.9999998807907104,
				1
			],
			"translation":[
				-1.5782693196797482e-07,
				1.3006471395492554,
				-1.5343047721216863e-08
			]
		},
		{
			"children":[
				3
			],
			"name":"apperArm_right",
			"rotation":[
				-3.9092276082897115e-09,
				2.842327262442268e-07,
				-0.041435614228248596,
				0.9991412162780762
			],
			"scale":[
				0.9999999403953552,
				1,
				1
			],
			"translation":[
				-6.901700544403866e-09,
				0.5835446119308472,
				-1.4825593552814098e-07
			]
		},
		{
			"children":[
				4
			],
			"name":"shoulder_right",
			"rotation":[
				2.3018314720957278e-07,
				-1.9808238960195013e-07,
				0.7040614485740662,
				0.7101390957832336
			],
			"translation":[
				-3.7626248285960173e-06,
				0.8995623588562012,
				9.365454900489567e-08
			]
		},
		{
			"children":[
				5
			],
			"name":"body_joint_right",
			"rotation":[
				2.562629886071477e-09,
				1.7575382571521914e-07,
				0.03401051089167595,
				0.9994214773178101
			],
			"scale":[
				1,
				0.9999999403953552,
				1
			],
			"translation":[
				-8.528481885150541e-07,
				1.2384730577468872,
				6.1309650689622686e-09
			]
		},
		{
			"children":[
				6
			],
			"name":"body_right",
			"rotation":[
				2.159419238978444e-07,
				-2.1707049313590687e-07,
				0.659428596496582,
				0.7517672181129456
			],
			"translation":[
				1.094390622569108e-08,
				0.7496776580810547,
				-9.135164624751724e-09
			]
		},
		{
			"name":"foreArm_left",
			"rotation":[
				2.5322635099911395e-09,
				1.7376189376250295e-08,
				-0.022677605971693993,
				0.9997428059577942
			],
			"translation":[
				8.17504428596294e-08,
				0.3595249652862549,
				-8.898291525838431e-08
			]
		},
		{
			"children":[
				8
			],
			"name":"elbow_left",
			"rotation":[
				-2.1356187651644376e-10,
				-1.6335319514837465e-06,
				0.0032679091673344374,
				0.999994695186615
			],
			"translation":[
				-1.4386458246917755e-07,
				1.3211443424224854,
				7.88448915045592e-08
			]
		},
		{
			"children":[
				9
			],
			"name":"apperArm_left",
			"rotation":[
				1.9421242392070326e-09,
				1.940304173331242e-06,
				-0.03127320855855942,
				0.9995108842849731
			],
			"scale":[
				0.9999998807907104,
				0.9999998807907104,
				1
			],
			"translation":[
				-2.5154577087960206e-08,
				0.612643837928772,
				6.261871021706611e-09
			]
		},
		{
			"children":[
				10
			],
			"name":"shoulder_left",
			"rotation":[
				1.538271021672699e-08,
				-2.090313273583888e-06,
				-0.6289950609207153,
				0.7774093151092529
			],
			"scale":[
				1,
				1.0000001192092896,
				1
			],
			"translation":[
				-3.76382672584441e-07,
				0.9563512206077576,
				-6.904204497004685e-08
			]
		},
		{
			"children":[
				11
			],
			"name":"body_joint_left",
			"rotation":[
				3.3646716524060594e-09,
				1.4087893305259058e-06,
				-0.032294321805238724,
				0.9994784593582153
			],
			"scale":[
				0.9999999403953552,
				0.9999999403953552,
				1
			],
			"translation":[
				-6.09721908517713e-08,
				1.2384730577468872,
				8.916521920809828e-08
			]
		},
		{
			"children":[
				12
			],
			"name":"body_left",
			"rotation":[
				2.6243196060704577e-08,
				-5.532465863211655e-08,
				-0.6594286561012268,
				0.7517671585083008
			],
			"scale":[
				1,
				1.0000001192092896,
				1
			],
			"translation":[
				-0.000511400809045881,
				0.7318544387817383,
				0.005337466951459646
			]
		},
		{
			"name":"weaponJointPoint_LT.tip",
			"rotation":[
				0.00034994041197933257,
				7.68902464187704e-06,
				0.00637851795181632,
				0.9999796152114868
			],
			"scale":[
				1,
				1,
				0.9999999403953552
			],
			"translation":[
				-1.6171761672012508e-06,
				1.975915551185608,
				-1.5920959413051605e-06
			]
		},
		{
			"children":[
				14
			],
			"name":"weaponJointPoint_LT",
			"rotation":[
				-0.19045954942703247,
				-0.17864879965782166,
				-0.6995779871940613,
				0.6651318669319153
			],
			"scale":[
				1.0000001192092896,
				1,
				0.9999999403953552
			],
			"translation":[
				7.003545761108398e-07,
				5.6534810066223145,
				9.387731552124023e-07
			]
		},
		{
			"name":"weaponJointPoint_LT.002",
			"rotation":[
				-8.229731918163452e-08,
				-2.6775526240641057e-09,
				2.9487885910839395e-08,
				1
			],
			"scale":[
				0.9999999403953552,
				0.9999999403953552,
				0.9999999403953552
			],
			"translation":[
				2.7567148208618164e-07,
				1.6709257364273071,
				-5.960464477539063e-08
			]
		},
		{
			"children":[
				16
			],
			"name":"weaponJointPoint_LT.001",
			"rotation":[
				-0.10340511053800583,
				5.223595778147683e-09,
				0.7131658792495728,
				0.6933266520500183
			],
			"scale":[
				0.9999999403953552,
				0.9999999403953552,
				0.9999999403953552
			],
			"translation":[
				7.003545761108398e-07,
				5.6534810066223145,
				9.387731552124023e-07
			]
		},
		{
			"children":[
				15,
				17
			],
			"name":"weaponArm_leftTop",
			"rotation":[
				0.24358762800693512,
				8.466751211244627e-08,
				-0.7039848566055298,
				0.6671360731124878
			],
			"scale":[
				1.0000001192092896,
				1,
				1.0000001192092896
			],
			"translation":[
				-3.3527612686157227e-07,
				1.6543864011764526,
				-3.2084062695503235e-07
			]
		},
		{
			"name":"weaponJointPoint_LB.tip",
			"rotation":[
				0.005681108217686415,
				-5.471224085340509e-06,
				0.0029211626388132572,
				0.9999796152114868
			],
			"scale":[
				1,
				0.9999998807907104,
				1
			],
			"translation":[
				4.321918822824955e-07,
				1.9759151935577393,
				1.5204423107206821e-06
			]
		},
		{
			"children":[
				19
			],
			"name":"weaponJointPoint_LB",
			"rotation":[
				-0.4713051915168762,
				0.2136969119310379,
				-0.5064663887023926,
				0.6897078156471252
			],
			"scale":[
				0.9999999403953552,
				0.9999998807907104,
				0.9999998807907104
			],
			"translation":[
				1.1920928955078125e-07,
				6.2681169509887695,
				5.960464477539062e-07
			]
		},
		{
			"name":"weaponJointPoint_LB.002",
			"rotation":[
				4.209793047493804e-08,
				-8.905772119760513e-09,
				-2.6396026697739217e-08,
				1
			],
			"scale":[
				1,
				1.0000001192092896,
				1
			],
			"translation":[
				-1.862645149230957e-07,
				1.6709259748458862,
				-5.066394805908203e-07
			]
		},
		{
			"children":[
				21
			],
			"name":"weaponJointPoint_LB.001",
			"rotation":[
				0.5416673421859741,
				4.1110730819582386e-08,
				0.42553001642227173,
				0.724928081035614
			],
			"translation":[
				1.1920928955078125e-07,
				6.2681169509887695,
				5.960464477539062e-07
			]
		},
		{
			"children":[
				20,
				22
			],
			"name":"weaponArm_leftBottom",
			"rotation":[
				-0.43723559379577637,
				-4.836205391711701e-08,
				-0.4641931354999542,
				0.7702920436859131
			],
			"scale":[
				1,
				1,
				1.0000001192092896
			],
			"translation":[
				-6.332993507385254e-07,
				1.6543868780136108,
				-2.2207386791706085e-06
			]
		},
		{
			"name":"weaponJointPoint_RT.tip",
			"rotation":[
				-0.0003498478326946497,
				-3.818027380475542e-06,
				-0.006378526333719492,
				0.9999796152114868
			],
			"scale":[
				1,
				0.9999999403953552,
				1
			],
			"translation":[
				-5.180481821298599e-07,
				1.9759156703948975,
				1.166015863418579e-06
			]
		},
		{
			"children":[
				24
			],
			"name":"weaponJointPoint_RT",
			"rotation":[
				-0.6968501210212708,
				-0.6820778250694275,
				-0.20021028816699982,
				0.09531863033771515
			],
			"scale":[
				0.9999998211860657,
				0.9999996423721313,
				0.9999999403953552
			],
			"translation":[
				-1.043081283569336e-07,
				5.653481483459473,
				-7.450580596923828e-08
			]
		},
		{
			"name":"weaponJointPoint_RT.002",
			"rotation":[
				9.161186653727782e-08,
				4.3422922146874043e-08,
				4.7605201558553745e-08,
				1
			],
			"scale":[
				0.9999999403953552,
				0.9999999403953552,
				0.9999999403953552
			],
			"translation":[
				0,
				1.6709260940551758,
				2.682209014892578e-07
			]
		},
		{
			"children":[
				26
			],
			"name":"weaponJointPoint_RT.001",
			"rotation":[
				0.00466638570651412,
				-3.893390143616671e-08,
				0.7206083536148071,
				0.6933267116546631
			],
			"scale":[
				0.9999998211860657,
				0.9999999403953552,
				0.9999998807907104
			],
			"translation":[
				-1.043081283569336e-07,
				5.653481483459473,
				-7.450580596923828e-08
			]
		},
		{
			"children":[
				25,
				27
			],
			"name":"weaponArm_rightTop",
			"rotation":[
				0.7033059000968933,
				-0.6395515203475952,
				-0.2810027301311493,
				0.13180293142795563
			],
			"scale":[
				1.000000238418579,
				1.0000001192092896,
				1.0000001192092896
			],
			"translation":[
				-0.08251706510782242,
				1.9039220809936523,
				-0.1376602053642273
			]
		},
		{
			"name":"weaponJointPoint_RB.tip",
			"rotation":[
				-0.005681293550878763,
				4.948799869453069e-06,
				-0.002921230858191848,
				0.9999796152114868
			],
			"scale":[
				1,
				0.9999998807907104,
				1
			],
			"translation":[
				1.7266720533370972e-06,
				1.9759156703948975,
				1.816079020500183e-07
			]
		},
		{
			"children":[
				29
			],
			"name":"weaponJointPoint_RB",
			"rotation":[
				0.17255555093288422,
				0.6581160426139832,
				-0.6699711680412292,
				0.29706302285194397
			],
			"scale":[
				1.0000001192092896,
				1,
				1
			],
			"translation":[
				2.384185791015625e-07,
				6.268121242523193,
				0
			]
		},
		{
			"name":"weaponJointPoint_RB.002",
			"rotation":[
				3.710504792309166e-09,
				-6.883055903017521e-09,
				2.9327917872024045e-08,
				1
			],
			"translation":[
				-4.172325134277344e-07,
				1.6709263324737549,
				2.5331974029541016e-07
			]
		},
		{
			"children":[
				31
			],
			"name":"weaponJointPoint_RB.001",
			"rotation":[
				0.5939480662345886,
				5.1388404642693786e-08,
				0.3488622307777405,
				0.7249282002449036
			],
			"scale":[
				1,
				0.9999999403953552,
				1
			],
			"translation":[
				2.384185791015625e-07,
				6.268121242523193,
				0
			]
		},
		{
			"children":[
				30,
				32
			],
			"name":"weaponArm_rightBottom",
			"rotation":[
				-0.6100102066993713,
				0.49612054228782654,
				0.22641092538833618,
				0.5748826265335083
			],
			"scale":[
				1,
				0.9999998807907104,
				1.0000001192092896
			],
			"translation":[
				-0.0825163722038269,
				1.9039218425750732,
				-0.13766027987003326
			]
		},
		{
			"name":"weaponArm_rightBottom.002",
			"rotation":[
				-1.195876393467188e-07,
				1.3969837731053758e-08,
				8.96397978067398e-09,
				1
			],
			"scale":[
				1,
				1,
				1.0000001192092896
			],
			"translation":[
				3.259629011154175e-09,
				2.8125762939453125,
				-9.9127646535635e-08
			]
		},
		{
			"children":[
				34
			],
			"name":"weaponArm_rightBottom.001",
			"rotation":[
				-0.13588538765907288,
				1.9746300594647437e-08,
				0.023216385394334793,
				0.9904525279998779
			],
			"scale":[
				1,
				1.0000001192092896,
				1.0000001192092896
			],
			"translation":[
				-0.0825163722038269,
				1.9039218425750732,
				-0.13766027987003326
			]
		},
		{
			"children":[
				18,
				23,
				28,
				33,
				35
			],
			"name":"backpack",
			"rotation":[
				-0.7992066144943237,
				-0.045501697808504105,
				0.043275292962789536,
				0.5977672338485718
			],
			"scale":[
				0.9999999403953552,
				1,
				1
			],
			"translation":[
				-0.000511311402078718,
				0.7318563461303711,
				0.005337139125913382
			]
		},
		{
			"children":[
				1,
				7,
				13,
				36
			],
			"name":"body.002",
			"rotation":[
				3.350401129898232e-15,
				-1.7763568394002505e-15,
				1.5181098006450064e-22,
				1
			],
			"translation":[
				-2.3196314313800315e-10,
				1.0334892272949219,
				-4.993155222621226e-09
			]
		},
		{
			"children":[
				37
			],
			"name":"body.001",
			"rotation":[
				-1.747576142160207e-15,
				1.0025484149742752e-23,
				-4.913567191841805e-23,
				1
			],
			"translation":[
				-2.3196371212730327e-10,
				1,
				1.9236635395714075e-08
			]
		},
		{
			"name":"toes_right",
			"rotation":[
				0.01003550086170435,
				-4.0915281829256855e-08,
				0.6043211817741394,
				0.7966776490211487
			],
			"scale":[
				1,
				1,
				0.9999999403953552
			],
			"translation":[
				7.651108546724572e-08,
				2.9891254901885986,
				-4.643697337769481e-08
			]
		},
		{
			"name":"heels_right",
			"rotation":[
				0.001998528838157654,
				-5.344742604052044e-08,
				-0.3082684278488159,
				0.9512973427772522
			],
			"scale":[
				1,
				1,
				0.9999999403953552
			],
			"translation":[
				-4.269820408353553e-08,
				2.9891254901885986,
				-4.643694495598538e-08
			]
		},
		{
			"children":[
				39,
				40
			],
			"name":"shin_right",
			"rotation":[
				-0.002347395056858659,
				-1.321459563996541e-07,
				1.1804461574893566e-10,
				0.9999972581863403
			],
			"translation":[
				4.2490025720098856e-08,
				0.8139303922653198,
				2.1988523712934693e-07
			]
		},
		{
			"name":"knees_right.002",
			"rotation":[
				-0.017466505989432335,
				2.8789020944941512e-08,
				-0.04567113518714905,
				0.9988038539886475
			],
			"scale":[
				0.9999999403953552,
				1,
				0.9999998807907104
			],
			"translation":[
				-4.1443854570388794e-08,
				1.6816140413284302,
				5.774199962615967e-08
			]
		},
		{
			"children":[
				42
			],
			"name":"knees_right.001",
			"rotation":[
				0.006476159207522869,
				-1.2809077531983348e-07,
				-0.46685314178466797,
				0.8843111991882324
			],
			"scale":[
				1,
				1.0000001192092896,
				1
			],
			"translation":[
				1.268771399054458e-08,
				0.8139303922653198,
				-1.8533341972215567e-08
			]
		},
		{
			"children":[
				41,
				43
			],
			"name":"knees_right",
			"rotation":[
				-7.79447084653384e-09,
				8.764993175702784e-09,
				1.2711830015259967e-14,
				1
			],
			"translation":[
				1.539408600592651e-09,
				1.8173125982284546,
				1.6693877569196047e-07
			]
		},
		{
			"children":[
				44
			],
			"name":"thighs_right",
			"rotation":[
				-0.69742351770401,
				-1.7032535382099923e-08,
				-6.141738850828915e-08,
				0.7166592478752136
			],
			"scale":[
				1,
				0.9999998807907104,
				0.9999998807907104
			],
			"translation":[
				-3.580451846119104e-08,
				1.0318289995193481,
				-1.7731980506141554e-07
			]
		},
		{
			"name":"waist_joint_right.005",
			"rotation":[
				-0.47588852047920227,
				-5.274589298664978e-08,
				-0.5650169253349304,
				0.6740074753761292
			],
			"scale":[
				0.9999999403953552,
				0.9999998807907104,
				0.9999998807907104
			],
			"translation":[
				4.76837158203125e-07,
				0.6118742227554321,
				1.1185184121131897e-06
			]
		},
		{
			"children":[
				46
			],
			"name":"waist_joint_right.004",
			"rotation":[
				0.1835712492465973,
				-5.2257349558715305e-09,
				-0.07420387119054794,
				0.9802017211914062
			],
			"scale":[
				1,
				0.9999998807907104,
				1
			],
			"translation":[
				5.360248067631801e-08,
				1.0318294763565063,
				3.162811594847881e-07
			]
		},
		{
			"children":[
				45,
				47
			],
			"name":"waist_joint_right",
			"rotation":[
				-0.5067545175552368,
				0.4931529760360718,
				0.5067545771598816,
				0.4931529760360718
			],
			"scale":[
				0.9999999403953552,
				0.9999998807907104,
				0.9999999403953552
			],
			"translation":[
				-1.51331249753639e-08,
				4.76837158203125e-07,
				4.461276148504112e-08
			]
		},
		{
			"name":"toes_left",
			"rotation":[
				-0.005436279345303774,
				-0.006062080152332783,
				0.6043803095817566,
				0.7966543436050415
			],
			"scale":[
				1,
				1.0000001192092896,
				0.9999998807907104
			],
			"translation":[
				-5.5578652791155037e-08,
				2.989124298095703,
				-3.5902587569580646e-07
			]
		},
		{
			"name":"heels_left",
			"rotation":[
				-0.0019988135900348425,
				-2.1017962481550967e-08,
				-0.30826836824417114,
				0.9512973427772522
			],
			"translation":[
				-5.5578652791155037e-08,
				2.989124298095703,
				-3.5902587569580646e-07
			]
		},
		{
			"children":[
				49,
				50
			],
			"name":"shin_left",
			"rotation":[
				0.0023474085610359907,
				-3.590069468373258e-07,
				7.515057909301959e-09,
				0.9999972581863403
			],
			"translation":[
				4.2351711471155795e-08,
				0.8139305710792542,
				-2.0842502834739207e-08
			]
		},
		{
			"name":"knees_left.002",
			"rotation":[
				-0.017466524615883827,
				-6.812624775420772e-08,
				-0.045671168714761734,
				0.9988038539886475
			],
			"translation":[
				-2.8265640139579773e-07,
				1.6816143989562988,
				6.984919309616089e-08
			]
		},
		{
			"children":[
				52
			],
			"name":"knees_left.001",
			"rotation":[
				0.006476193200796843,
				-1.026832592287974e-07,
				-0.4668532609939575,
				0.8843111395835876
			],
			"scale":[
				1,
				1.0000001192092896,
				1
			],
			"translation":[
				-1.7252919093380115e-08,
				0.8139308094978333,
				-2.0842561454514907e-08
			]
		},
		{
			"children":[
				51,
				53
			],
			"name":"knees_left",
			"rotation":[
				8.038007592858776e-09,
				-7.63409069293175e-09,
				-7.330342555178504e-09,
				1
			],
			"translation":[
				3.985791607874489e-08,
				1.8173120021820068,
				2.9187315675471837e-08
			]
		},
		{
			"children":[
				54
			],
			"name":"thighs_left",
			"rotation":[
				0.6974235773086548,
				2.799805827180535e-07,
				-1.8945122803870618e-07,
				0.7166591882705688
			],
			"translation":[
				-3.175732388172037e-08,
				1.0318286418914795,
				6.589725671801716e-07
			]
		},
		{
			"name":"waist_joint_right.003",
			"rotation":[
				0.4807637631893158,
				1.2850338748648937e-07,
				-0.5797964334487915,
				0.65780109167099
			],
			"scale":[
				0.9999998807907104,
				0.9999998807907104,
				0.9999998807907104
			],
			"translation":[
				-2.7194619178771973e-07,
				0.5660687685012817,
				2.3818574845790863e-07
			]
		},
		{
			"children":[
				56
			],
			"name":"waist_joint_right.002",
			"rotation":[
				-0.12930695712566376,
				1.677429253277296e-07,
				0.03325781598687172,
				0.9910467863082886
			],
			"scale":[
				1,
				1,
				1.0000001192092896
			],
			"translation":[
				-9.136196865711099e-08,
				1.0318286418914795,
				1.1358097253832966e-06
			]
		},
		{
			"children":[
				55,
				57
			],
			"name":"waist_joint_right.001",
			"rotation":[
				0.5067543983459473,
				0.49315279722213745,
				-0.5067547559738159,
				0.4931531548500061
			],
			"scale":[
				0.9999999403953552,
				0.9999999403953552,
				0.9999999403953552
			],
			"translation":[
				-0.0005113412044011056,
				-0.017821788787841797,
				0.005337520502507687
			]
		},
		{
			"children":[
				38,
				48,
				58
			],
			"name":"waist",
			"rotation":[
				-8.557136332854043e-09,
				1.7114272665708086e-08,
				-2.928983286277023e-16,
				1
			],
			"translation":[
				0.03508281707763672,
				0,
				0
			]
		},
		{
			"name":"neutral_bone",
			"rotation":[
				-1,
				2.928983286277023e-16,
				-1.7114272665708086e-08,
				8.557136332854043e-09
			]
		},
		{
			"mesh":0,
			"name":"\u7acb\u65b9\u4f53",
			"skin":0
		},
		{
			"children":[
				61,
				59,
				60
			],
			"name":"armature",
			"translation":[
				-0.024333953857421875,
				6.516746520996094,
				-0.37414854764938354
			]
		}
	],
	"meshes":[
		{
			"name":"mecha",
			"primitives":[
				{
					"attributes":{
						"POSITION":0,
						"NORMAL":1,
						"TEXCOORD_0":2,
						"JOINTS_0":3,
						"WEIGHTS_0":4
					},
					"indices":5
				}
			]
		}
	],
	"skins":[
		{
			"inverseBindMatrices":6,
			"joints":[
				59,
				38,
				37,
				1,
				0,
				7,
				6,
				5,
				4,
				3,
				2,
				13,
				12,
				11,
				10,
				9,
				8,
				36,
				18,
				15,
				14,
				17,
				16,
				23,
				20,
				19,
				22,
				21,
				28,
				25,
				24,
				27,
				26,
				33,
				30,
				29,
				32,
				31,
				35,
				34,
				48,
				45,
				44,
				41,
				39,
				40,
				43,
				42,
				47,
				46,
				58,
				55,
				54,
				51,
				49,
				50,
				53,
				52,
				57,
				56,
				60
			],
			"name":"armature"
		}
	],
	"accessors":[
		{
			"bufferView":0,
			"componentType":5126,
			"count":12936,
			"max":[
				3.178180456161499,
				11.2276611328125,
				2.340117931365967
			],
			"min":[
				-2.9830877780914307,
				-0.19282197952270508,
				-4.005415916442871
			],
			"type":"VEC3"
		},
		{
			"bufferView":1,
			"componentType":5126,
			"count":12936,
			"type":"VEC3"
		},
		{
			"bufferView":2,
			"componentType":5126,
			"count":12936,
			"type":"VEC2"
		},
		{
			"bufferView":3,
			"componentType":5121,
			"count":12936,
			"type":"VEC4"
		},
		{
			"bufferView":4,
			"componentType":5126,
			"count":12936,
			"type":"VEC4"
		},
		{
			"bufferView":5,
			"componentType":5123,
			"count":22146,
			"type":"SCALAR"
		},
		{
			"bufferView":6,
			"componentType":5126,
			"count":61,
			"type":"MAT4"
		}
	],
	"bufferViews":[
		{
			"buffer":0,
			"byteLength":155232,
			"byteOffset":0,
			"target":34962
		},
		{
			"buffer":0,
			"byteLength":155232,
			"byteOffset":155232,
			"target":34962
		},
		{
			"buffer":0,
			"byteLength":103488,
			"byteOffset":310464,
			"target":34962
		},
		{
			"buffer":0,
			"byteLength":51744,
			"byteOffset":413952,
			"target":34962
		},
		{
			"buffer":0,
			"byteLength":206976,
			"byteOffset":465696,
			"target":34962
		},
		{
			"buffer":0,
			"byteLength":44292,
			"byteOffset":672672,
			"target":34963
		},
		{
			"buffer":0,
			"byteLength":3904,
			"byteOffset":716964
		}
	],
	"buffers":[
		{
			"byteLength":720868,
			"uri":"Player_Model_ver2.0.bin"
		}
	]
}
