{
	"asset":{
		"generator":"Khronos glTF Blender I/O v4.1.63",
		"version":"2.0"
	},
	"extensionsUsed":[
		"KHR_texture_transform"
	],
	"extensionsRequired":[
		"KHR_texture_transform"
	],
	"scene":0,
	"scenes":[
		{
			"name":"Scene",
			"nodes":[
				0
			]
		}
	],
	"nodes":[
		{
			"mesh":0,
			"name":"Rail1"
		}
	],
	"materials":[
		{
			"doubleSided":true,
			"name":"RailMaterial",
			"pbrMetallicRoughness":{
				"baseColorTexture":{
					"extensions":{
						"KHR_texture_transform":{
							"offset":[
								0,
								64.99999618530273
							],
							"scale":[
								11.399999618530273,
								-63.999996185302734
							]
						}
					},
					"index":0
				},
				"metallicFactor":0,
				"roughnessFactor":0.5
			}
		}
	],
	"meshes":[
		{
			"name":"Rail",
			"primitives":[
				{
					"attributes":{
						"POSITION":0,
						"NORMAL":1,
						"TEXCOORD_0":2
					},
					"indices":3,
					"material":0
				}
			]
		}
	],
	"textures":[
		{
			"sampler":0,
			"source":0
		}
	],
	"images":[
		{
			"mimeType":"image/jpeg",
			"name":"concrete_road",
			"uri":"concrete_road.jpg"
		}
	],
	"accessors":[
		{
			"bufferView":0,
			"componentType":5126,
			"count":8650,
			"max":[
				46.610137939453125,
				34.05096435546875,
				769.8758544921875
			],
			"min":[
				-52.02295684814453,
				-1.8371777534484863,
				-772.72802734375
			],
			"type":"VEC3"
		},
		{
			"bufferView":1,
			"componentType":5126,
			"count":8650,
			"type":"VEC3"
		},
		{
			"bufferView":2,
			"componentType":5126,
			"count":8650,
			"type":"VEC2"
		},
		{
			"bufferView":3,
			"componentType":5123,
			"count":12816,
			"type":"SCALAR"
		}
	],
	"bufferViews":[
		{
			"buffer":0,
			"byteLength":103800,
			"byteOffset":0,
			"target":34962
		},
		{
			"buffer":0,
			"byteLength":103800,
			"byteOffset":103800,
			"target":34962
		},
		{
			"buffer":0,
			"byteLength":69200,
			"byteOffset":207600,
			"target":34962
		},
		{
			"buffer":0,
			"byteLength":25632,
			"byteOffset":276800,
			"target":34963
		}
	],
	"samplers":[
		{
			"magFilter":9729,
			"minFilter":9987
		}
	],
	"buffers":[
		{
			"byteLength":302432,
			"uri":"Rail.bin"
		}
	]
}
