{
	"asset":{
		"generator":"Khronos glTF Blender I/O v4.1.63",
		"version":"2.0"
	},
	"scene":0,
	"scenes":[
		{
			"name":"Scene",
			"nodes":[
				0,
				1,
				2
			]
		}
	],
	"nodes":[
		{
			"mesh":0,
			"name":"\u7acb\u65b9\u4f53"
		},
		{
			"name":"Body"
		},
		{
			"name":"Body.001"
		}
	],
	"materials":[
		{
			"doubleSided":true,
			"name":"\u30de\u30c6\u30ea\u30a2\u30eb",
			"pbrMetallicRoughness":{
				"baseColorFactor":[
					0.05429929494857788,
					0.03133811801671982,
					0.03331173583865166,
					1
				],
				"metallicFactor":0,
				"roughnessFactor":0.5
			}
		},
		{
			"doubleSided":true,
			"name":"\u30de\u30c6\u30ea\u30a2\u30eb.001",
			"pbrMetallicRoughness":{
				"baseColorFactor":[
					0.8008760809898376,
					0.332568883895874,
					0,
					1
				],
				"metallicFactor":0,
				"roughnessFactor":0.5
			}
		}
	],
	"meshes":[
		{
			"name":"\u7acb\u65b9\u4f53",
			"primitives":[
				{
					"attributes":{
						"POSITION":0,
						"NORMAL":1,
						"TEXCOORD_0":2
					},
					"indices":3,
					"material":0
				},
				{
					"attributes":{
						"POSITION":4,
						"NORMAL":5,
						"TEXCOORD_0":6
					},
					"indices":7,
					"material":1
				}
			]
		}
	],
	"accessors":[
		{
			"bufferView":0,
			"componentType":5126,
			"count":48,
			"max":[
				0.05455508828163147,
				4.843874931335449,
				0.06027042120695114
			],
			"min":[
				-0.05455508083105087,
				-0.22514496743679047,
				-0.24284347891807556
			],
			"type":"VEC3"
		},
		{
			"bufferView":1,
			"componentType":5126,
			"count":48,
			"type":"VEC3"
		},
		{
			"bufferView":2,
			"componentType":5126,
			"count":48,
			"type":"VEC2"
		},
		{
			"bufferView":3,
			"componentType":5123,
			"count":72,
			"type":"SCALAR"
		},
		{
			"bufferView":4,
			"componentType":5126,
			"count":88,
			"max":[
				0.07697013020515442,
				3.2088756561279297,
				1.1278437376022339
			],
			"min":[
				-0.07697028666734695,
				-1.2684680223464966,
				-0.2672104239463806
			],
			"type":"VEC3"
		},
		{
			"bufferView":5,
			"componentType":5126,
			"count":88,
			"type":"VEC3"
		},
		{
			"bufferView":6,
			"componentType":5126,
			"count":88,
			"type":"VEC2"
		},
		{
			"bufferView":7,
			"componentType":5123,
			"count":156,
			"type":"SCALAR"
		}
	],
	"bufferViews":[
		{
			"buffer":0,
			"byteLength":576,
			"byteOffset":0,
			"target":34962
		},
		{
			"buffer":0,
			"byteLength":576,
			"byteOffset":576,
			"target":34962
		},
		{
			"buffer":0,
			"byteLength":384,
			"byteOffset":1152,
			"target":34962
		},
		{
			"buffer":0,
			"byteLength":144,
			"byteOffset":1536,
			"target":34963
		},
		{
			"buffer":0,
			"byteLength":1056,
			"byteOffset":1680,
			"target":34962
		},
		{
			"buffer":0,
			"byteLength":1056,
			"byteOffset":2736,
			"target":34962
		},
		{
			"buffer":0,
			"byteLength":704,
			"byteOffset":3792,
			"target":34962
		},
		{
			"buffer":0,
			"byteLength":312,
			"byteOffset":4496,
			"target":34963
		}
	],
	"buffers":[
		{
			"byteLength":4808,
			"uri":"ShotGun.bin"
		}
	]
}
